<mxfile host="app.diagrams.net" modified="2022-09-15T22:16:13.218Z" agent="5.0 (Macintosh; Intel Mac OS X 10_15_7) AppleWebKit/605.1.15 (KHTML, like Gecko) Version/15.6.1 Safari/605.1.15" etag="1Hc4e1w6s_VtAOk9wz68" version="20.3.1" type="github">
  <diagram id="GE4l9biw6WSuj6t96Djp" name="Page-1">
    <mxGraphModel dx="946" dy="556" grid="1" gridSize="10" guides="1" tooltips="1" connect="1" arrows="1" fold="1" page="1" pageScale="1" pageWidth="850" pageHeight="1100" math="0" shadow="0">
      <root>
        <mxCell id="0" />
        <mxCell id="1" parent="0" />
        <mxCell id="6Nbccw_XD-Fw9ADP2CrT-1" value="" style="whiteSpace=wrap;html=1;aspect=fixed;fillColor=#eeeeee;strokeColor=#36393d;" parent="1" vertex="1">
          <mxGeometry x="130" width="630" height="630" as="geometry" />
        </mxCell>
        <mxCell id="6Nbccw_XD-Fw9ADP2CrT-9" value="&lt;font face=&quot;Verdana&quot;&gt;Welcome To CS401&lt;/font&gt;" style="rounded=0;whiteSpace=wrap;html=1;fillColor=#fa6800;fontColor=#FFFFFF;strokeColor=#C73500;gradientColor=#3A1CFF;gradientDirection=east;fontFamily=Helvetica;fontStyle=1;fontSize=24;" parent="1" vertex="1">
          <mxGeometry x="130" width="630" height="630" as="geometry" />
        </mxCell>
        <mxCell id="6Nbccw_XD-Fw9ADP2CrT-11" value="" style="rounded=1;whiteSpace=wrap;html=1;fillColor=#e51400;fontColor=#ffffff;strokeColor=#B20000;" parent="1" vertex="1">
          <mxGeometry x="365" y="510" width="135" height="60" as="geometry" />
        </mxCell>
        <mxCell id="6Nbccw_XD-Fw9ADP2CrT-2" value="&lt;font color=&quot;#ffffff&quot; face=&quot;Verdana&quot;&gt;CS401&lt;/font&gt;" style="whiteSpace=wrap;html=1;aspect=fixed;fontSize=20;fontStyle=1;labelBackgroundColor=none;fillColor=none;strokeColor=#FFFFFF;shadow=0;rounded=0;" parent="1" vertex="1">
          <mxGeometry x="150" y="20" width="90" height="90" as="geometry" />
        </mxCell>
        <mxCell id="6Nbccw_XD-Fw9ADP2CrT-3" value="&lt;b&gt;&lt;font color=&quot;#ffffff&quot;&gt;Course Links&lt;/font&gt;&lt;/b&gt;" style="rounded=0;whiteSpace=wrap;html=1;fontFamily=Verdana;fillColor=none;strokeColor=#FFFFFF;" parent="1" vertex="1">
          <mxGeometry x="260" y="42.5" width="100" height="45" as="geometry" />
        </mxCell>
        <mxCell id="6Nbccw_XD-Fw9ADP2CrT-6" value="&lt;b&gt;&lt;font color=&quot;#ffffff&quot;&gt;Documents&lt;/font&gt;&lt;/b&gt;" style="rounded=0;whiteSpace=wrap;html=1;strokeColor=#FFFFFF;fillColor=none;" parent="1" vertex="1">
          <mxGeometry x="380" y="42.5" width="100" height="45" as="geometry" />
        </mxCell>
        <mxCell id="6Nbccw_XD-Fw9ADP2CrT-7" value="&lt;b&gt;&lt;font color=&quot;#ffffff&quot;&gt;Content&lt;/font&gt;&lt;/b&gt;" style="rounded=0;whiteSpace=wrap;html=1;strokeColor=#FFFFFF;fillColor=none;" parent="1" vertex="1">
          <mxGeometry x="500" y="42.5" width="100" height="45" as="geometry" />
        </mxCell>
        <mxCell id="6Nbccw_XD-Fw9ADP2CrT-8" value="&lt;b&gt;&lt;font color=&quot;#ffffff&quot;&gt;Contact&lt;/font&gt;&lt;/b&gt;" style="rounded=0;whiteSpace=wrap;html=1;strokeColor=#FFFFFF;fillColor=none;" parent="1" vertex="1">
          <mxGeometry x="620" y="42.5" width="100" height="45" as="geometry" />
        </mxCell>
        <mxCell id="6Nbccw_XD-Fw9ADP2CrT-10" value="&lt;p style=&quot;font-style: normal; font-variant-caps: normal; font-weight: 400; letter-spacing: normal; text-indent: 0px; text-transform: none; word-spacing: 0px; -webkit-text-stroke-width: 0px; text-decoration: none; margin: 0px 0px 15px; padding: 0px; caret-color: rgb(0, 0, 0); color: rgb(0, 0, 0); font-size: 14px;&quot;&gt;&lt;/p&gt;&lt;div style=&quot;text-align: justify;&quot;&gt;&lt;span style=&quot;font-family: Verdana;&quot;&gt;&lt;font style=&quot;font-size: 14px;&quot;&gt;Lorem ipsum dolor sit amet, consectetur adipiscing elit. Fusce est quam, molestie nec nibh eu, commodo ullamcorper leo. Curabitur nec consequat mi, sed dapibus elit. Sed quis elementum massa. Mauris sodales orci mauris, sed consequat nunc ultricies at. Aenean rhoncus odio ante, sed lobortis turpis pharetra eget. Nunc quis urna eu enim facilisis tincidunt. Cras aliquam vitae dolor eget facilisis. Sed sed congue lacus. Praesent in mi at purus sodales dictum nec et odio. Sed commodo quis felis a cursus. Suspendisse ultrices commodo elit sed mollis. Cras eget nisl semper magna posuere volutpat. Integer a sollicitudin mi, nec laoreet risus.&lt;/font&gt;&lt;/span&gt;&lt;/div&gt;&lt;p&gt;&lt;/p&gt;&lt;font style=&quot;font-size: 14px;&quot; face=&quot;Verdana&quot;&gt;&lt;div style=&quot;&quot;&gt;&lt;div style=&quot;&quot;&gt;&lt;div style=&quot;&quot;&gt;&lt;div style=&quot;&quot;&gt;&lt;div style=&quot;&quot;&gt;&lt;div style=&quot;&quot;&gt;&lt;div style=&quot;text-align: left;&quot;&gt;&lt;div style=&quot;text-align: justify;&quot;&gt;&lt;br&gt;&lt;/div&gt;&lt;/div&gt;&lt;/div&gt;&lt;/div&gt;&lt;/div&gt;&lt;/div&gt;&lt;/div&gt;&lt;/div&gt;&lt;/font&gt;" style="rounded=0;whiteSpace=wrap;html=1;fillColor=#eeeeee;strokeColor=#36393d;" parent="1" vertex="1">
          <mxGeometry x="190" y="290" width="520" height="200" as="geometry" />
        </mxCell>
        <mxCell id="6Nbccw_XD-Fw9ADP2CrT-12" value="&lt;span style=&quot;font-style: normal; font-variant-caps: normal; font-weight: 400; letter-spacing: normal; text-indent: 0px; text-transform: none; word-spacing: 0px; -webkit-text-stroke-width: 0px; text-decoration: none; caret-color: rgb(0, 0, 0); color: rgb(0, 0, 0); font-family: &amp;quot;Open Sans&amp;quot;, Arial, sans-serif; text-align: justify; float: none; font-size: 10px; display: inline !important; background-color: rgb(238, 238, 238);&quot;&gt;Nam cursus eu eros ac maximus. Etiam ornare neque ac nibh tristique, ac&lt;span class=&quot;Apple-converted-space&quot;&gt;&amp;nbsp;&lt;/span&gt;&lt;/span&gt;" style="rounded=0;whiteSpace=wrap;html=1;fontFamily=Verdana;fillColor=#eeeeee;strokeColor=#36393d;" parent="1" vertex="1">
          <mxGeometry x="142.5" y="590" width="597.5" height="30" as="geometry" />
        </mxCell>
        <mxCell id="6Nbccw_XD-Fw9ADP2CrT-15" value="" style="triangle;whiteSpace=wrap;html=1;labelBackgroundColor=none;fontFamily=Verdana;fontSize=10;gradientDirection=east;" parent="1" vertex="1">
          <mxGeometry x="422.5" y="520" width="30" height="40" as="geometry" />
        </mxCell>
        <mxCell id="6Nbccw_XD-Fw9ADP2CrT-19" value="&lt;b&gt;&lt;font style=&quot;font-size: 36px;&quot;&gt;Welcome TO CS401&lt;/font&gt;&lt;/b&gt;" style="rounded=0;whiteSpace=wrap;html=1;shadow=0;labelBackgroundColor=none;strokeColor=none;fontFamily=Verdana;fontSize=10;fontColor=#FFFFFF;fillColor=none;gradientColor=#3A1CFF;gradientDirection=east;" parent="1" vertex="1">
          <mxGeometry x="185" y="140" width="520" height="70" as="geometry" />
        </mxCell>
      </root>
    </mxGraphModel>
  </diagram>
</mxfile>
